<?xml version="1.0" standalone="no"?><!DOCTYPE svg PUBLIC "-//W3C//DTD SVG 1.1//EN" "http://www.w3.org/Graphics/SVG/1.1/DTD/svg11.dtd"><svg class="icon" width="200px" height="200.00px" viewBox="0 0 1024 1024" version="1.1" xmlns="http://www.w3.org/2000/svg"><path d="M150.3 830.8a355.9 116.2 0 1 0 711.8 0 355.9 116.2 0 1 0-711.8 0Z" fill="#EBEBED" /><path d="M288 834.2v-637c0-39.8 32.6-72.4 72.4-72.4h311.3c39.8 0 72.4 32.6 72.4 72.4v637.1" fill="#FFFFFF" /><path d="M284.6 781.7h462.9v59.7H284.6z" fill="#FFD073" /><path d="M744.1 845.4c-6.2 0-11.2-5-11.2-11.2v-637c0-33.7-27.5-61.2-61.2-61.2H360.4c-33.7 0-61.2 27.5-61.2 61.2v637c0 6.2-5 11.2-11.2 11.2s-11.2-5-11.2-11.2v-637c0-46.1 37.5-83.6 83.6-83.6h311.3c46.1 0 83.6 37.5 83.6 83.6v637c0 6.2-5 11.2-11.2 11.2z" fill="#444957" /><path d="M367.7 555.8c-6.2 0-11.2-5-11.2-11.2v-94.1c0-6.2 5-11.2 11.2-11.2s11.2 5 11.2 11.2v94.1c0 6.2-5.1 11.2-11.2 11.2zM809.3 852.7H222.9c-6.2 0-11.2-5-11.2-11.2s5-11.2 11.2-11.2h586.4c6.2 0 11.2 5 11.2 11.2s-5.1 11.2-11.2 11.2z" fill="#444957" /></svg>