<?xml version="1.0" standalone="no"?><!DOCTYPE svg PUBLIC "-//W3C//DTD SVG 1.1//EN" "http://www.w3.org/Graphics/SVG/1.1/DTD/svg11.dtd"><svg class="icon" width="200px" height="200.00px" viewBox="0 0 1024 1024" version="1.1" xmlns="http://www.w3.org/2000/svg"><path d="M865.28 870.4H158.72c-16.9984 0-30.72-13.7216-30.72-30.72V402.2272c0-16.9984 13.7216-30.72 30.72-30.72h706.3552c16.9984 0 30.72 13.7216 30.72 30.72V839.68c0.2048 16.9984-13.7216 30.72-30.5152 30.72z m-675.84-61.44h644.9152V432.9472H189.44V808.96z" fill="#2F4072" /><path d="M865.28 432.9472H158.72a30.8224 30.8224 0 0 1-28.4672-42.5984l90.112-217.9072c4.9152-11.264 15.9744-18.8416 28.4672-18.8416h526.336c12.4928 0 23.552 7.5776 28.4672 19.0464l90.112 217.9072a30.59712 30.59712 0 0 1-28.4672 42.3936z m-660.48-61.44h614.4l-64.7168-156.4672H269.312L204.8 371.5072z" fill="#2F4072" /><path d="M447.0784 769.4336c-6.7584 0-13.5168-2.4576-18.6368-7.5776l-124.5184-121.856c-10.4448-10.24-10.6496-27.2384-0.4096-37.6832s27.2384-10.6496 37.6832-0.4096l106.0864 103.6288 237.568-228.9664c10.6496-10.24 27.4432-9.8304 37.6832 0.6144 10.24 10.6496 9.8304 27.4432-0.6144 37.6832L465.5104 761.856c-5.12 5.12-11.8784 7.5776-18.432 7.5776z" fill="#FE76FF" /></svg>