<?xml version="1.0" standalone="no"?><!DOCTYPE svg PUBLIC "-//W3C//DTD SVG 1.1//EN" "http://www.w3.org/Graphics/SVG/1.1/DTD/svg11.dtd"><svg t="1667312819046" class="icon" viewBox="0 0 1024 1024" version="1.1" xmlns="http://www.w3.org/2000/svg" p-id="6678" xmlns:xlink="http://www.w3.org/1999/xlink" width="150" height="150"><path d="M528 57.621333l369.493333 213.333334A32 32 0 0 1 913.493333 298.666667v426.666666a32 32 0 0 1-16 27.712l-369.493333 213.333334a32 32 0 0 1-32 0l-369.493333-213.333334A32 32 0 0 1 110.506667 725.333333V298.666667a32 32 0 0 1 16-27.712l144.768-83.626667 0.96-1.578667 0.874666 0.533334L496 57.621333a32 32 0 0 1 32 0z m-6.122667 838.357334h-19.797333l9.92 5.738666 9.877333-5.738666zM174.506667 350.592v356.266667l305.493333 176.362666 0.021333-352.917333-305.493333-179.712z m675.029333-0.021333l-70.869333 41.664L778.666667 490.666667a32 32 0 0 1-11.690667 24.746666l-2.56 1.877334-128 85.333333c-20.48 13.653333-47.658667 0.021333-49.642667-23.829333L586.666667 576v-70.826667l-42.666667 25.109334v352.938666l305.493333-176.362666V350.570667zM392.32 191.36l-55.808 32.234667 298.368 175.488a32 32 0 0 1 15.616 24.533333L650.666667 426.666667v89.536l64-42.666667v-92.586667L392.341333 191.36z m-119.509333 69.013333L209.493333 296.938667 512 474.858667l62.741333-36.906667-301.909333-177.578667zM512 122.282667l-55.957333 32.298666 300.202666 176.597334 58.24-34.261334L512 122.282667z" fill="#2c2c2c" p-id="6679"></path></svg>