<?xml version="1.0" standalone="no"?><!DOCTYPE svg PUBLIC "-//W3C//DTD SVG 1.1//EN" "http://www.w3.org/Graphics/SVG/1.1/DTD/svg11.dtd"><svg t="1667312889395" class="icon" viewBox="0 0 1024 1024" version="1.1" xmlns="http://www.w3.org/2000/svg" p-id="8570" xmlns:xlink="http://www.w3.org/1999/xlink" width="150" height="150"><path d="M728.9 669.7l-41.8 141.8c-19.4 65.4-72.8 69-101 7l-44-97c-3.6-8-6.7-8.5-12.7-2.3L362.9 891c-62.2 64.4-133.6 41.9-147.6-46.6L104.5 146c-6.7-42.5 27-64 62.6-40l704.7 474c79.2 53.3 57.7 105.2-35.9 86.7l-77.1-15.2c-12.7-2.5-26.3 6-29.9 18.2z m-579-513.4l108.2 681.4c8.4 53.2 36.2 61.9 73.6 23.3l166.2-172c27.3-28.2 67.1-21.3 83.4 14.4l44 97c11.6 25.5 12.1 25.5 20.1-1.4l41.8-141.6c9.9-33.7 45.3-55.2 79.8-48.5l77.1 15.2c7 1.4 13.3 2.4 18.9 3-4.3-3.5-9.5-7.2-15.5-11.2L319.6 260.8l309.6 269.5c6.7 5.9 7.5 16.2 1.6 23-5.9 6.7-16.2 7.5-23 1.6L149.9 156.3z" fill="#2c2c2c" p-id="8571"></path></svg>