<svg xml:space="preserve" style="enable-background:new 0 0 256 255.564;" viewBox="0 0 256 255.564" height="255.564px" width="256px" y="0px" x="0px" xmlns:xlink="http://www.w3.org/1999/xlink" xmlns="http://www.w3.org/2000/svg" id="Layer_1" version="1.1">
<g>
	<path d="M253.834,225.801c0-4.264-4.164-7.753-9.254-7.753c-5.089,0-9.253-2.982-9.253-6.631
		c0-3.646-13.5-6.63-30-6.63H63.956c-16.5,0-30,1.508-30,3.353c0,1.844-7.64,3.352-16.978,3.352C7.64,211.49,0,215.449,0,220.288
		c0,4.84,7.64,8.799,16.978,8.799s16.978,0.109,16.978,0.242c0,0.134,2.373,0.243,5.272,0.243c2.9,0,5.272,3.193,5.272,7.097
		c0,3.902-8.243,7.097-18.317,7.097c-10.074,0-18.317,2.298-18.317,5.104s5.87,5.105,13.045,5.105
		c7.175,0,13.045,0.133,13.045,0.295c0,0.161,13.5,0.294,30,0.294h116.419c16.5,0,30-0.133,30-0.294
		c0-0.162,6.328-0.295,14.062-0.295c7.735,0,16.078-4.596,18.539-10.211c2.461-5.616,5.912-10.212,7.666-10.212
		C252.398,233.552,253.834,230.064,253.834,225.801z" style="fill:#C8E3D2;"></path>
</g>
<g>
	<path d="M29.84,168.334l38.067,26.729l0,0c1.514,1.062,3.604,0.697,4.667-0.817s0.698-3.604-0.816-4.666l0,0
		L33.69,162.85l0,0c-1.514-1.063-3.604-0.698-4.667,0.816C27.959,165.181,28.325,167.27,29.84,168.334L29.84,168.334z" style="fill:#B2B2B2;"></path>
	<path d="M69.829,197.171L69.829,197.171c-1,0-1.963-0.305-2.784-0.881l-38.067-26.729
		c-1.061-0.744-1.768-1.857-1.991-3.133c-0.224-1.276,0.064-2.563,0.809-3.624c0.907-1.292,2.392-2.063,3.972-2.063
		c1.001,0,1.964,0.306,2.785,0.882l38.067,26.729c1.06,0.744,1.767,1.856,1.99,3.133c0.223,1.275-0.063,2.562-0.808,3.622
		C72.895,196.399,71.41,197.171,69.829,197.171z M31.767,163.741c-0.604,0-1.17,0.295-1.516,0.787
		c-0.285,0.405-0.394,0.896-0.309,1.383c0.085,0.486,0.355,0.911,0.76,1.195l38.067,26.729c0.811,0.569,2.014,0.351,2.577-0.451
		c0.284-0.405,0.394-0.896,0.309-1.383c-0.085-0.486-0.354-0.91-0.759-1.194l-38.068-26.729
		C32.515,163.858,32.147,163.741,31.767,163.741z" style="fill:#6E6E96;"></path>
</g>
<g>
	<g>
		<path d="M4.271,162.791c0,3.688,3.016,6.701,6.701,6.701h75.247c3.686,0,6.701-3.015,6.701-6.701v-0.453
			c0-3.686-3.016-6.7-6.701-6.7H10.972c-3.686,0-6.701,3.016-6.701,6.7V162.791z" style="fill:#FFFFFF;"></path>
		<path d="M86.219,169.992H10.972c-3.971,0-7.201-3.23-7.201-7.201v-0.453c0-3.97,3.23-7.2,7.201-7.2h75.247
			c3.971,0,7.201,3.23,7.201,7.2v0.453C93.42,166.761,90.19,169.992,86.219,169.992z M10.972,156.137
			c-3.419,0-6.201,2.781-6.201,6.2v0.453c0,3.419,2.782,6.201,6.201,6.201h75.247c3.419,0,6.201-2.782,6.201-6.201v-0.453
			c0-3.419-2.782-6.2-6.201-6.2H10.972z" style="fill:#6E6E96;"></path>
	</g>
	<path d="M86.219,170.992H10.972c-4.522,0-8.201-3.679-8.201-8.201v-0.453c0-4.521,3.679-8.2,8.201-8.2
		h75.247c4.522,0,8.201,3.679,8.201,8.2v0.453C94.42,167.313,90.741,170.992,86.219,170.992z M10.972,157.137
		c-2.868,0-5.201,2.333-5.201,5.2v0.453c0,2.868,2.333,5.201,5.201,5.201h75.247c2.868,0,5.201-2.333,5.201-5.201v-0.453
		c0-2.867-2.333-5.2-5.201-5.2H10.972z" style="fill:#6E6E96;"></path>
</g>
<g>
	<path d="M12.836,157.041c10.864-0.224,22.783-0.224,33.918-0.211c2.473-0.013,4.952-0.015,7.43-0.015
		c13.523,0,34.419,6.092,37.36-1.833c5.957-16.049,6.172-37.59,0.917-48.592c-3.951-8.273-24.754-2.751-38.277-2.966
		c-2.478,0-4.957,0-7.396,0c-11.169,0.215-26.756-3.453-30.422,2.049C7.198,117.392,6.925,151.129,12.836,157.041
		C14.572,158.777,12.836,157.041,12.836,157.041z" style="fill:#DEC1A0;"></path>
	<path d="M81.251,160.552c-4.047,0-8.868-0.567-13.53-1.117c-4.671-0.55-9.501-1.119-13.537-1.119
		c-2.476,0-4.952,0.002-7.422,0.015l-6.51-0.005c-8.372,0-18.17,0.026-27.371,0.215l-0.334,0.333l-3.258-3.26l0.829-0.017
		c-4.888-10.405-3.322-40.077,5.031-51c2.211-3.254,7.249-3.672,11.396-3.672c2.961,0,6.307,0.254,9.542,0.501
		c3.631,0.276,7.387,0.562,10.673,0.5l7.425,0c0.278,0.004,0.535-0.016,0.793,0.006c3.7,0,8.024-0.405,12.206-0.796
		c4.299-0.402,8.744-0.818,12.671-0.818c4.88,0,11.637,0.562,13.96,5.427c5.555,11.631,5.176,33.488-0.864,49.761
		C91.271,160.028,85.469,160.552,81.251,160.552z M54.184,155.315c4.212,0,9.131,0.579,13.888,1.14
		c4.576,0.539,9.307,1.097,13.179,1.097c5.208,0,8.115-1.011,8.887-3.091c5.695-15.345,6.13-36.619,0.97-47.424
		c-1.212-2.538-4.788-3.72-11.253-3.72c-3.788,0-8.162,0.409-12.392,0.805c-4.25,0.397-8.645,0.809-12.485,0.809
		c-0.001,0-0.001,0-0.002,0c-0.275,0-0.545-0.002-0.815-0.006h-7.372c-0.305,0.006-0.644,0.009-0.985,0.009
		c-3.152,0-6.605-0.263-9.944-0.517c-3.326-0.253-6.467-0.492-9.314-0.492c-4.941,0-7.862,0.779-8.93,2.38l-0.059,0.083
		c-8.577,11.15-8.9,42.681-4.048,49.139c9.027-0.178,18.565-0.202,26.745-0.202l6.504,0.005
		C49.222,155.317,51.704,155.315,54.184,155.315z" style="fill:#6E6E96;"></path>
</g>
<g>
	<path d="M69.348,102.442c-5.266,0.481-10.625,1.056-15.163,0.983h-7.396
		c-11.169,0.215-26.756-3.453-30.422,2.049c-9.169,11.919-9.441,45.654-3.53,51.566c10.864-0.224,22.783-0.224,33.918-0.211
		c2.166-0.011,12.075-0.012,14.245-0.012c11.116-9.611,10.425-23.842,10.425-39.735C71.425,111.999,70.691,107.091,69.348,102.442z" style="fill:#EBCCA9;"></path>
	<path d="M12.229,158.553l-0.452-0.452c-6.792-6.793-5.816-41.49,3.373-53.503
		c2.211-3.254,7.249-3.673,11.396-3.673c2.961,0,6.307,0.254,9.542,0.501c3.631,0.277,7.386,0.561,10.673,0.5l7.425,0
		c0.278,0.004,0.535,0.006,0.795,0.006c3.697,0,8.017-0.404,12.194-0.794l3.271-0.302l0.344,1.19
		c1.417,4.906,2.136,9.972,2.136,15.057l0.004,2.635c0.036,14.764,0.07,28.709-10.948,38.235l-0.422,0.365H61
		c-2.169,0-12.073,0.001-14.238,0.012l-6.508-0.005c-8.376,0-18.181,0.026-27.387,0.216L12.229,158.553z M26.545,103.926
		c-4.941,0-7.862,0.779-8.93,2.38l-0.059,0.083c-8.577,11.149-8.9,42.68-4.048,49.138c9.027-0.178,18.567-0.202,26.747-0.202
		l6.502,0.005c2.006-0.01,10.716-0.012,13.676-0.012c9.562-8.616,9.532-21.133,9.497-35.593l-0.004-2.642
		c0-4.393-0.567-8.77-1.688-13.031l-0.783,0.073c-4.552,0.426-9.264,0.857-13.292,0.801h-7.372
		c-0.305,0.006-0.644,0.009-0.985,0.009c-3.152,0-6.605-0.263-9.944-0.517C32.534,104.165,29.393,103.926,26.545,103.926z" style="fill:#6E6E96;"></path>
</g>
<g>
	<path d="M94.807,101.491L72.202,95.99l-0.587-0.142H71.01H17.283l0,0c-2.785,0-5.043,2.256-5.043,5.042
		c0,2.784,2.257,5.043,5.043,5.043l0,0H71.01l-1.192-0.144l22.604,5.501l0,0c2.706,0.659,5.434-1.001,6.092-3.708
		C99.173,104.877,97.513,102.15,94.807,101.491L94.807,101.491z" style="fill:#EBCCA9;"></path>
	<path d="M93.62,112.935C93.619,112.935,93.619,112.935,93.62,112.935c-0.521,0-1.043-0.063-1.553-0.187
		l-21.839-5.315H17.283c-3.608,0-6.543-2.935-6.543-6.543c0-3.607,2.935-6.542,6.543-6.542h54.51l23.368,5.685
		c3.505,0.854,5.663,4.399,4.81,7.904C99.256,110.88,96.644,112.935,93.62,112.935z M71.181,104.578l21.595,5.255
		c0.278,0.068,0.561,0.102,0.843,0.102c0,0,0,0,0,0c1.636,0,3.049-1.113,3.437-2.707c0.462-1.898-0.707-3.817-2.604-4.28
		l-23.015-5.6H17.283c-1.954,0-3.543,1.589-3.543,3.542c0,1.954,1.589,3.543,3.543,3.543h52.69l0.024-0.133l1.192,0.144
		L71.181,104.578z" style="fill:#6E6E96;"></path>
</g>
<g style="opacity:0.23;enable-background:new    ;">
	<path d="M71.01,105.933c0,0,0.168,0.095,0.479,0.264l20.934,5.094c2.706,0.659,5.433-1.001,6.092-3.708
		c0.659-2.706-1.002-5.433-3.708-6.092L72.201,95.99l-2.835-0.142C71.793,100.524,71.01,105.933,71.01,105.933z" style="fill:#5A3D1C;"></path>
	<path d="M93.621,111.935C93.62,111.935,93.62,111.935,93.621,111.935c-0.442,0-0.884-0.054-1.316-0.159
		l-21.055-5.14l-0.784-0.435l0.048-0.339c0.008-0.053,0.729-5.312-1.592-9.783l-0.401-0.773l3.705,0.185l22.699,5.515
		c2.97,0.724,4.798,3.727,4.076,6.696C98.394,110.194,96.181,111.935,93.621,111.935z M71.671,105.727l20.87,5.078
		c0.354,0.086,0.718,0.13,1.079,0.13c0,0,0,0,0,0c2.098,0,3.911-1.427,4.409-3.471c0.592-2.433-0.906-4.895-3.34-5.488
		l-22.606-5.501l-1.903-0.089c1.743,3.921,1.49,8.056,1.366,9.271L71.671,105.727z" style="fill:#6E6E96;"></path>
</g>
<g>
	<path d="M225.402,94.001c1.6,2.55-0.057,6.089-3.68,7.865l-14.814,7.26
		c-3.623,1.775-7.369,1.833-8.326,0.128s1.021-4.906,4.396-7.115l13.379-8.757C219.732,91.172,223.803,91.451,225.402,94.001z" style="fill:#9797B5;"></path>
	<path d="M201.625,111.996c-2.079,0-3.624-0.713-4.351-2.008c-1.576-2.807,1.34-6.786,4.883-9.104
		l13.379-8.757c1.71-1.12,3.678-1.736,5.541-1.736c2.435,0,4.475,1.025,5.596,2.813c0.848,1.352,1.061,2.988,0.6,4.609
		c-0.632,2.218-2.414,4.187-4.89,5.4l-14.814,7.26C205.563,111.455,203.453,111.996,201.625,111.996z M221.077,93.39
		c-1.286,0-2.671,0.442-3.898,1.246l-13.379,8.757c-3.224,2.11-4.216,4.582-3.91,5.126c0.107,0.192,0.659,0.477,1.735,0.477
		c1.36,0,3.045-0.444,4.623-1.217l14.814-7.26c1.688-0.828,2.932-2.146,3.324-3.528c0.16-0.561,0.245-1.396-0.255-2.193
		C223.57,93.904,222.457,93.39,221.077,93.39z" style="fill:#6E6E96;"></path>
</g>
<g>
	<path d="M212.918,103.071c0,0,1.32,0.915,2.52-0.089c1.492-1.251,0.461-2.789,0.461-2.789
		s1.086,0.722,1.793,0.055c2.72-2.571-0.338-5.407-0.338-5.407l-5.151-2.786c0,0-2.79-1.296-5.034,1.256c0,0-3.893,2.984-6.316,2.77
		l-0.055-0.011l-0.308-0.043c-0.005,0-0.009,0-0.015-0.001l0,0l-33.803-4.007l-23.6-18.069c-1.953-1.645-6.602-0.847-8.598,1.082
		s-2.033,4.827-0.078,6.471l0,0l26.028,18.328c0.777,0.653,1.791,1.036,2.89,1.09l37.285,2.329c0.801,0.04,1.582-0.099,2.303-0.373
		l0,0l0.011-0.003c0.224-0.086,0.442-0.182,0.653-0.293c1.361-0.571,4.992-1.975,5.695-0.181c0,0,1.594,2.804,3.143,2.195
		c1.551-0.607,0.625-1.432,0.625-1.432" style="fill:#F7C8B6;"></path>
	<path d="M211.953,106.183c-1.65,0-3.135-1.528-3.995-3.043l-0.053-0.093
		c-0.247-0.052-1.228-0.14-3.702,0.892c-0.244,0.125-0.495,0.234-0.752,0.333l-0.088,0.031c-0.925,0.342-1.879,0.491-2.839,0.442
		l-37.304-2.33c-1.372-0.067-2.692-0.562-3.708-1.395L133.432,82.65c-1.219-1.024-1.92-2.456-1.975-4.03
		c-0.059-1.696,0.661-3.397,1.976-4.667c2.456-2.375,7.943-3.392,10.605-1.151l23.219,17.776l33.793,4.013
		c1.272,0.053,3.682-1.326,5.099-2.389c2.347-2.553,5.389-2.109,6.686-1.507l5.54,3.047c0.197,0.184,1.934,1.859,1.944,4.126
		c0.004,0.891-0.27,2.216-1.597,3.47c-0.312,0.295-0.661,0.485-1.023,0.591c-0.119,0.756-0.5,1.535-1.297,2.203
		c-0.65,0.544-1.343,0.77-1.991,0.81c-0.271,0.381-0.721,0.761-1.459,1.05C212.614,106.123,212.28,106.183,211.953,106.183z
		 M212.059,103.101c-0.059,0.043-0.231,0.238-0.253,0.563c-0.006,0.089-0.01,0.394,0.193,0.589l0.408-0.445l1.339-1.987
		c0.159,0.099,0.463,0.232,0.729,0.011c0.379-0.317,0.306-0.612,0.178-0.803l2.076-2.085c0.023,0.014,0.06,0.031,0.098,0.046
		c0.491-0.539,0.492-0.954,0.492-1.099c0.002-0.729-0.554-1.487-0.876-1.838l-4.892-2.646c-0.31-0.124-1.9-0.65-3.257,0.894
		l-0.213,0.2c-0.729,0.558-4.5,3.333-7.362,3.073l-0.491-0.069l-34.141-4.045L142.16,75.14c-1.3-1.092-5.117-0.504-6.644,0.97
		c-0.704,0.681-1.091,1.558-1.062,2.406c0.024,0.706,0.322,1.327,0.863,1.8l26.071,18.365c0.523,0.44,1.233,0.703,1.998,0.74
		l37.306,2.33c0.55,0.023,1.119-0.066,1.675-0.278l0.073-0.027c0.146-0.058,0.287-0.121,0.425-0.193l0.12-0.057
		c2.791-1.171,4.803-1.463,6.149-0.895c0.674,0.285,1.18,0.775,1.47,1.423c0.389,0.649,1.008,1.323,1.323,1.443
		C212.022,103.127,212.059,103.101,212.059,103.101z" style="fill:#6E6E96;"></path>
</g>
<g>
	<path d="M155.273,192.306l-13.168-52.2c0,0-3.203,0,0,0h-33.393c-2.154,0-4.188-0.994-5.515-2.694
		c-1.324-1.7-1.791-3.915-1.265-6.005l16.054-63.696l0,0c0.944-3.744,4.745-6.013,8.488-5.069c3.746,0.943,6.013,4.743,5.072,8.487
		l0,0l-16.054,63.696c0.527-2.091,0.06-4.305-1.266-6.005c-1.325-1.7-3.359-2.694-5.514-2.694h37.006
		c3.201,0,5.994,2.177,6.777,5.281l17.225,57.676l-0.891-0.191c0.943,3.741-1.324,7.543-5.068,8.485
		C160.02,198.32,156.219,196.052,155.273,192.306L155.273,192.306z" style="fill:#76A7B5;"></path>
	<path d="M162.048,199.091c-3.892,0-7.275-2.639-8.229-6.417l-12.883-51.067h-32.224
		c-2.634,0-5.075-1.192-6.697-3.271c-1.62-2.08-2.18-4.738-1.537-7.294l16.054-63.697c0.953-3.778,4.337-6.417,8.229-6.417
		c0.698,0,1.398,0.087,2.081,0.259c4.538,1.143,7.302,5.767,6.16,10.308l-13.391,53.131h26.108c3.894,0,7.279,2.638,8.231,6.414
		l17.208,57.613c0.151,0.509,0.023,1.059-0.336,1.448c-0.085,0.091-0.18,0.171-0.281,0.237c0.053,1.607-0.354,3.199-1.199,4.614
		c-1.163,1.947-3.015,3.325-5.214,3.879C163.446,199.003,162.746,199.091,162.048,199.091z M143.567,139.77l13.16,52.169
		c0.617,2.444,2.805,4.151,5.32,4.151c0.451,0,0.904-0.057,1.348-0.168c1.422-0.358,2.618-1.249,3.37-2.508s0.969-2.735,0.61-4.156
		c-0.127-0.503,0.015-1.036,0.375-1.409c0.009-0.009,0.019-0.019,0.027-0.027l-16.72-55.985c-0.633-2.505-2.822-4.211-5.34-4.211
		h-26.864l-1.905,7.558c0,0.003-0.001,0.006-0.002,0.008l0,0c-0.202,0.804-1.017,1.293-1.821,1.088
		c-0.803-0.202-1.29-1.018-1.088-1.82c0.417-1.653,0.054-3.372-0.994-4.716c-1.049-1.346-2.627-2.117-4.332-2.117
		c-0.829,0-1.5-0.671-1.5-1.5s0.671-1.5,1.5-1.5h7.804l13.576-53.864c0.738-2.936-1.049-5.927-3.984-6.666
		c-0.443-0.112-0.896-0.168-1.348-0.168c-2.516,0-4.704,1.707-5.32,4.15l-16.054,63.696c-0.416,1.652-0.054,3.372,0.994,4.717
		c1.049,1.345,2.628,2.116,4.331,2.116h33.393c0.001,0,0.003,0,0.005,0h0.001c0.002,0,0.003,0,0.005,0c0.001,0,0.002,0,0.002,0
		c0.001,0,0.002,0,0.003,0h0.001c0.378,0.004,0.722,0.147,0.983,0.382c0.001,0.001,0.001,0.001,0.002,0.002l0,0
		c0.086,0.077,0.162,0.163,0.229,0.259h0.001c0,0.001,0,0.001,0,0.001C143.445,139.404,143.524,139.58,143.567,139.77z
		 M115.189,127.626c0.075,0.089,0.149,0.18,0.221,0.272c0.072,0.093,0.143,0.187,0.211,0.282l0.14-0.554H115.189z" style="fill:#6E6E96;"></path>
</g>
<g>
	<path d="M153.298,192.146c0,4.047,2.55,5.486,11.009,5.486c8.461,0,17.475-0.521,17.475-4.566
		c0-4.045-8.59-8.245-17.049-8.245C156.271,184.821,153.298,188.101,153.298,192.146z" style="fill:#A5A5C2;"></path>
	<path d="M164.307,199.133c-7.723,0-12.509-1.169-12.509-6.986c0-3.296,1.681-8.825,12.935-8.825
		c8.578,0,18.549,4.257,18.549,9.745C183.281,198.664,173.487,199.133,164.307,199.133z M164.732,186.321
		c-4.532,0-9.935,1.011-9.935,5.825c0,1.96,0,3.986,9.509,3.986c13.899,0,15.975-1.921,15.975-3.066
		C180.281,190.465,173.165,186.321,164.732,186.321z" style="fill:#6E6E96;"></path>
</g>
<g>
	<path d="M62.862,194.528h26.181c11.107,13.021,3.136,21.75,54.686,21.75c0.877,0,1.746-0.021,2.614-0.047
		l-0.001,0.007c40.672,0,67.125-18.374,77.863-35.606c10.443-16.759-17.096-63.264-17.096-63.264s-6.18-14.888-14.729-12.17
		c-10.762,3.423-10.783,14.24-10.783,14.24l4.787,31.07c7.938,47.577-38.977,55.176-38.977,55.176l-0.033,0.331
		c-4.393,0.392-9.234,0.61-14.59,0.61c0,0-12.203-5.367-12.203-34.366v-22.402H84.816c0,0-27.353-2.972-32.613,23.438
		C48.054,194.131,55.636,194.528,62.862,194.528" style="fill:#FFE278;"></path>
	<path d="M143.729,217.778c-41.917,0-45.492-6.01-50.903-15.107c-1.257-2.113-2.554-4.293-4.483-6.643h-25.48
		c-3.378,0-8.005,0-10.813-3.422c-2.866-3.493-3.285-9.723-1.317-19.604c4.573-22.961,25.359-24.746,31.621-24.746
		c1.35,0,2.259,0.074,2.537,0.101h37.192v23.902c0,25.179,9.438,31.891,11.079,32.866c4.496-0.009,8.809-0.177,12.846-0.5
		l0.023-0.236l1.137-0.186c0.201-0.033,20.2-3.458,31.265-18.899c6.587-9.191,8.765-20.815,6.474-34.549l-4.808-31.32
		c0-0.119,0.158-11.955,11.828-15.667c0.84-0.267,1.696-0.402,2.548-0.402c8.061,0,13.411,11.996,13.979,13.325
		c1.726,2.929,27.698,47.608,17.026,64.733c-10.939,17.556-37.474,36.313-79.137,36.313h-0.216
		C145.33,217.76,144.532,217.778,143.729,217.778z M82.353,151.257c-7.286,0-24.665,2.177-28.679,22.332
		c-1.73,8.687-1.497,14.445,0.694,17.114c1.767,2.154,4.762,2.325,8.494,2.325h26.873l0.449,0.526
		c2.342,2.746,3.871,5.315,5.219,7.583c5.06,8.506,8.114,13.641,48.325,13.641c0.862,0,1.717-0.021,2.57-0.046l1.781-0.053
		l-0.007,0.048c39.437-0.506,64.496-18.26,74.858-34.889c4.003-6.424,2.365-19.055-4.735-36.527
		c-5.472-13.466-12.31-25.063-12.378-25.179l-0.094-0.188c-1.342-3.22-5.978-11.578-11.251-11.578c-0.542,0-1.094,0.088-1.639,0.261
		c-9.12,2.9-9.698,11.588-9.735,12.711l4.768,30.941c2.427,14.542,0.067,26.928-7.013,36.795
		c-10.372,14.452-27.467,18.906-32.065,19.872l-0.045,0.452l-1.236,0.11c-4.587,0.409-9.54,0.616-14.723,0.616h-0.315l-0.288-0.127
		c-0.535-0.235-13.1-6.103-13.1-35.739v-20.902l-34.426-0.009C84.647,151.347,83.777,151.257,82.353,151.257z" style="fill:#6E6E96;"></path>
</g>
<g>
	<path d="M173.57,212.486c0,18.396,8.289,33.308,27.5,33.308c29.311,0,42.074-14.656,42.074-33.308
		c0-18.396-15.574-33.307-34.789-33.307C189.145,179.179,173.57,194.092,173.57,212.486z" style="fill:#9D9DBF;"></path>
	<path d="M201.07,247.294c-18.159,0-29-13.012-29-34.808c0-19.192,16.277-34.807,36.285-34.807
		c20.01,0,36.289,15.614,36.289,34.807C244.645,234.282,228.355,247.294,201.07,247.294z M208.355,180.679
		c-18.354,0-33.285,14.269-33.285,31.807c0,28.708,18.183,31.808,26,31.808c25.785,0,40.574-11.594,40.574-31.808
		C241.645,194.948,226.711,180.679,208.355,180.679z" style="fill:#6E6E96;"></path>
</g>
<g>
	<ellipse ry="29.861" rx="28.959" cy="215.931" cx="201.07" style="fill:#B2B2D1;"></ellipse>
	<path d="M201.07,247.292c-16.794,0-30.457-14.068-30.457-31.36c0-17.293,13.663-31.361,30.457-31.361
		c16.795,0,30.459,14.068,30.459,31.361C231.529,233.223,217.865,247.292,201.07,247.292z M201.07,187.57
		c-15.14,0-27.457,12.723-27.457,28.361c0,15.638,12.317,28.36,27.457,28.36c15.141,0,27.459-12.723,27.459-28.36
		C228.529,200.293,216.211,187.57,201.07,187.57z" style="fill:#6E6E96;"></path>
</g>
<g>
	<ellipse ry="16.156" rx="15.372" cy="213.845" cx="199.666" style="fill:#F5F5F5;"></ellipse>
	<path d="M199.666,231.501c-9.304,0-16.872-7.92-16.872-17.655s7.568-17.656,16.872-17.656
		s16.872,7.921,16.872,17.656S208.97,231.501,199.666,231.501z M199.666,199.189c-7.649,0-13.872,6.575-13.872,14.656
		s6.223,14.655,13.872,14.655s13.872-6.574,13.872-14.655S207.315,199.189,199.666,199.189z" style="fill:#6E6E96;"></path>
</g>
<g>
	<path d="M56.795,212.745c0,18.396,8.289,33.31,27.5,33.31c33.129,0,42.074-14.913,42.074-33.31
		c0-18.396-15.576-33.307-34.789-33.307C72.37,179.438,56.795,194.349,56.795,212.745z" style="fill:#9D9DBF;"></path>
	<path d="M84.295,247.554c-18.159,0-29-13.013-29-34.81c0-19.192,16.277-34.807,36.285-34.807
		c20.01,0,36.289,15.614,36.289,34.807C127.869,236.168,113.616,247.554,84.295,247.554z M91.58,180.938
		c-18.354,0-33.285,14.269-33.285,31.807c0,28.71,18.183,31.81,26,31.81c27.682,0,40.574-10.107,40.574-31.81
		C124.869,195.207,109.936,180.938,91.58,180.938z" style="fill:#6E6E96;"></path>
</g>
<g>
	<ellipse ry="29.862" rx="28.959" cy="216.191" cx="84.295" style="fill:#B2B2D1;"></ellipse>
	<path d="M84.295,247.552c-16.795,0-30.459-14.068-30.459-31.361s13.664-31.362,30.459-31.362
		s30.459,14.069,30.459,31.362S101.09,247.552,84.295,247.552z M84.295,187.829c-15.141,0-27.459,12.724-27.459,28.362
		s12.318,28.361,27.459,28.361s27.459-12.723,27.459-28.361S99.436,187.829,84.295,187.829z" style="fill:#6E6E96;"></path>
</g>
<path d="M198.835,218.049c-1.673,0-3.307-0.839-4.253-2.364L183.58,197.96
	c-1.456-2.346-0.735-5.429,1.611-6.885c2.347-1.458,5.43-0.734,6.885,1.611l11.002,17.725c1.456,2.346,0.735,5.429-1.611,6.885
	C200.646,217.805,199.734,218.049,198.835,218.049z" style="fill:#6E6E96;"></path>
<g>
	<ellipse ry="16.156" rx="15.372" cy="214.106" cx="82.891" style="fill:#F5F5F5;"></ellipse>
	<path d="M82.891,231.762c-9.303,0-16.872-7.921-16.872-17.656s7.569-17.656,16.872-17.656
		s16.872,7.921,16.872,17.656S92.194,231.762,82.891,231.762z M82.891,199.45c-7.649,0-13.872,6.575-13.872,14.656
		s6.223,14.656,13.872,14.656s13.872-6.575,13.872-14.656S90.54,199.45,82.891,199.45z" style="fill:#6E6E96;"></path>
</g>
<g>
	<path d="M92.721,170.707c23.459,0,42.477,20.402,42.477,45.57H50.243c0-8.253,2.045-15.993,5.621-22.671" style="fill:#FFE278;"></path>
	<path d="M135.198,217.777H50.243c-0.829,0-1.5-0.672-1.5-1.5c0-8.211,2.005-16.295,5.798-23.379
		c0.391-0.729,1.299-1.006,2.03-0.614c0.73,0.391,1.005,1.3,0.614,2.03c-3.33,6.219-5.191,13.264-5.419,20.463h81.908
		c-0.737-23.609-18.825-42.57-40.954-42.57c-0.829,0-1.5-0.672-1.5-1.5s0.671-1.5,1.5-1.5c24.249,0,43.977,21.115,43.977,47.07
		C136.698,217.105,136.026,217.777,135.198,217.777z" style="fill:#6E6E96;"></path>
</g>
<g>
	<path d="M195.92,175.536c-23.785,1.769-37.104,43.1-21.663,53.283c5.771,3.805,4.272-25.638,33.063-28.837
		c10.514-1.752,46.636-7.887,25.582-22.277c-4.666-3.188-9.446-4.966-14.064-5.8c0,0-5.047-1.794-5.047-10.41" style="fill:#FFE278;"></path>
	<path d="M175.234,230.657c-0.512,0-1.129-0.142-1.803-0.586c-6.804-4.486-9.068-14.812-5.913-26.949
		c3.446-13.25,13.769-28.002,28.29-29.082c0.816-0.058,1.546,0.559,1.607,1.385s-0.559,1.546-1.385,1.607
		c-13.051,0.97-22.424,14.596-25.609,26.845c-2.822,10.855-1.037,19.933,4.661,23.69c0.057,0.037,0.101,0.061,0.13,0.074
		c0.628-0.391,1.688-2.835,2.544-4.811c3.354-7.737,9.596-22.139,29.397-24.34c13.237-2.208,29.379-6.062,30.65-11.821
		c0.602-2.727-2.794-5.707-5.749-7.727c-4.127-2.82-8.664-4.691-13.484-5.562l-0.235-0.063c-0.247-0.088-6.045-2.258-6.045-11.823
		c0-0.828,0.672-1.5,1.5-1.5s1.5,0.672,1.5,1.5c0,6.79,3.42,8.7,3.975,8.964c5.179,0.958,10.051,2.979,14.483,6.008
		c5.408,3.696,7.759,7.347,6.985,10.85c-1.771,8.021-19.777,11.914-33.168,14.146c-18.153,2.02-23.727,14.879-27.057,22.562
		c-1.554,3.583-2.579,5.95-4.484,6.518C175.806,230.607,175.538,230.657,175.234,230.657z" style="fill:#6E6E96;"></path>
</g>
<g>
	<g>
		<path d="M51.538,153.863c0,4.565,4.308,8.299,9.572,8.299h53.872c5.265,0,9.573-3.732,9.573-8.299
			c0-4.564-4.308-8.298-9.573-8.298H61.11C55.846,145.565,51.538,149.3,51.538,153.863z" style="fill:#FF8F8F;"></path>
		<path d="M114.982,163.662H61.11c-6.105,0-11.072-4.396-11.072-9.799c0-5.402,4.967-9.798,11.072-9.798
			h53.872c6.106,0,11.073,4.396,11.073,9.798C126.055,159.266,121.088,163.662,114.982,163.662z M61.11,147.065
			c-4.451,0-8.072,3.05-8.072,6.798c0,3.749,3.621,6.799,8.072,6.799h53.872c4.452,0,8.073-3.05,8.073-6.799
			c0-3.748-3.622-6.798-8.073-6.798H61.11z" style="fill:#6E6E96;"></path>
	</g>
	<g>
		<path d="M51.538,153.863c0,4.565,4.308,8.299,9.572,8.299h53.872c5.265,0,9.573-3.732,9.573-8.299
			c0-4.564-4.308-8.298-9.573-8.298H61.11C55.846,145.565,51.538,149.3,51.538,153.863z" style="fill:#FF8F8F;"></path>
		<path d="M114.982,163.662H61.11c-6.105,0-11.072-4.396-11.072-9.799c0-5.402,4.967-9.798,11.072-9.798
			h53.872c6.106,0,11.073,4.396,11.073,9.798C126.055,159.266,121.088,163.662,114.982,163.662z M61.11,147.065
			c-4.451,0-8.072,3.05-8.072,6.798c0,3.749,3.621,6.799,8.072,6.799h53.872c4.452,0,8.073-3.05,8.073-6.799
			c0-3.748-3.622-6.798-8.073-6.798H61.11z" style="fill:#6E6E96;"></path>
	</g>
</g>
<g>
	<path d="M115.179,130.793h13.827c3.03,0,5.676,2.177,6.416,5.283l16.505,57.481h-1.864
		c0.896,3.742-1.252,7.545-4.797,8.487c-3.543,0.942-7.141-1.326-8.035-5.068l0,0l-12.474-52.199l0,0H93.162
		c-2.04,0-3.966-0.994-5.219-2.695c-1.254-1.698-1.694-3.915-1.197-6.005L101.94,76.05l1.834-2.75
		c0.894-3.743,2.658-3.263,6.199-2.318c3.544,0.942,5.693,1.076,4.801,4.818l0,0" style="fill:#76A7B5;"></path>
	<path d="M143.639,203.759c-1.396,0-2.774-0.378-4.015-1.118c-1.942-1.159-3.311-3.047-3.853-5.315
		l-12.198-51.048H93.162c-2.5,0-4.902-1.235-6.427-3.306c-1.523-2.063-2.052-4.704-1.448-7.241l15.199-60.049
		c0.042-0.165,0.111-0.322,0.206-0.464l1.689-2.534c0.293-1.129,0.841-2.584,2.121-3.348c1.583-0.944,3.458-0.444,5.831,0.188
		c0.353,0.094,0.668,0.174,0.97,0.25c2.85,0.724,6.081,1.544,4.93,6.372c-0.192,0.806-1.002,1.304-1.807,1.111
		c-0.806-0.192-1.304-1.001-1.111-1.807c0.452-1.898,0.375-1.976-2.75-2.769c-0.312-0.079-0.639-0.162-0.977-0.252
		c-1.584-0.423-3.054-0.813-3.548-0.519c-0.171,0.102-0.502,0.463-0.807,1.736c-0.041,0.172-0.113,0.336-0.211,0.483l-1.691,2.536
		L88.2,136.445c-0.388,1.631-0.035,3.413,0.949,4.746c0.977,1.326,2.439,2.086,4.013,2.086h31.595c0.694,0,1.297,0.477,1.459,1.151
		l12.474,52.199c0.353,1.475,1.23,2.695,2.473,3.437c1.136,0.677,2.456,0.867,3.718,0.531c2.761-0.734,4.431-3.734,3.724-6.689
		c-0.106-0.446-0.003-0.917,0.281-1.277c0.259-0.328,0.641-0.531,1.052-0.566L133.98,136.49c-0.598-2.499-2.636-4.197-4.975-4.197
		h-13.827c-0.829,0-1.5-0.672-1.5-1.5s0.671-1.5,1.5-1.5h13.827c3.733,0,6.973,2.646,7.875,6.436l16.487,57.415
		c0.13,0.453,0.04,0.94-0.243,1.316s-0.728,0.598-1.198,0.598h-0.165c0.092,3.87-2.381,7.445-6.11,8.437
		C144.985,203.672,144.311,203.759,143.639,203.759z" style="fill:#6E6E96;"></path>
</g>
<g>
	<path d="M135.202,202.745c0.755,3.977,3.528,4.916,11.84,3.341c8.313-1.576,17.069-3.77,16.315-7.742
		c-0.752-3.977-9.975-6.502-18.285-4.928C136.762,194.992,134.45,198.768,135.202,202.745z" style="fill:#A5A5C2;"></path>
	<path d="M140.904,208.31L140.904,208.31c-4.211,0-6.491-1.68-7.176-5.286
		c-0.612-3.239,0.011-8.985,11.064-11.082c1.753-0.332,3.583-0.5,5.44-0.5c6.632,0,13.775,2.274,14.598,6.623
		c0.491,2.587-1.419,4.755-5.679,6.442c-3.467,1.374-8.144,2.353-11.831,3.052C144.655,208.065,142.556,208.31,140.904,208.31z
		 M150.233,194.442c-1.67,0-3.312,0.15-4.882,0.447c-4.451,0.845-9.57,2.845-8.676,7.577c0.358,1.886,1.11,2.844,4.229,2.844l0,0
		c1.462,0,3.378-0.229,5.858-0.698c3.557-0.675,8.053-1.612,11.284-2.894c1.237-0.49,4.088-1.773,3.837-3.096
		C161.51,196.645,156.633,194.442,150.233,194.442z" style="fill:#6E6E96;"></path>
</g>
<g>
	<path d="M173.859,115.956c0,10.439,13.59,17.019,25.939,17.019c12.348,0,13.492-8.462,13.492-18.902
		c0-10.439-2.37-18.902-14.719-18.902C186.227,95.17,173.859,105.517,173.859,115.956z" style="fill:#BEBED6;"></path>
	<path d="M199.799,134.474c-13.196,0-27.439-7.08-27.439-18.519c0-11.247,12.984-22.286,26.213-22.286
		c14.375,0,16.219,10.903,16.219,20.402C214.791,124.395,213.634,134.474,199.799,134.474z M198.572,96.67
		c-11.498,0-23.213,9.733-23.213,19.286c0,9.283,12.637,15.519,24.439,15.519c10.197,0,11.992-5.611,11.992-17.402
		C211.791,103.627,209.543,96.67,198.572,96.67z" style="fill:#6E6E96;"></path>
</g>
<g>
	<g>
		<path d="M156.008,131.256c1.383,2.769,5.487,3.29,9.121,1.162l13.633-7.986
			c3.633-2.131,5.803-5.31,4.817-7.066c-0.986-1.757-4.961-1.843-8.835-0.192l-14.206,6.05
			C156.664,124.873,154.624,128.487,156.008,131.256z" style="fill:#9797B5;"></path>
		<path d="M160.594,135.227L160.594,135.227c-2.68-0.001-4.896-1.234-5.928-3.302
			c-0.716-1.432-0.781-3.113-0.185-4.736c0.836-2.273,2.829-4.222,5.469-5.347l14.206-6.05c1.974-0.841,4.065-1.304,5.891-1.304
			c2.346,0,4.064,0.761,4.84,2.142c1.432,2.551-0.876,6.461-5.366,9.095l-13.634,7.986
			C164.194,134.703,162.364,135.227,160.594,135.227z M180.047,117.489c-1.431,0-3.104,0.377-4.715,1.063l-14.206,6.05
			c-1.854,0.79-3.285,2.144-3.829,3.622c-0.218,0.593-0.386,1.483,0.053,2.36c0.521,1.044,1.703,1.642,3.244,1.643l0,0
			c1.221,0,2.562-0.393,3.777-1.104l13.633-7.987c3.467-2.033,4.577-4.484,4.267-5.038
			C182.134,117.854,181.428,117.489,180.047,117.489z" style="fill:#6E6E96;"></path>
	</g>
	<g>
		<path d="M156.008,131.256c1.383,2.769,5.487,3.29,9.121,1.162l13.633-7.986
			c3.633-2.131,5.803-5.31,4.817-7.066c-0.986-1.757-4.961-1.843-8.835-0.192l-14.206,6.05
			C156.664,124.873,154.624,128.487,156.008,131.256z" style="fill:#9797B5;"></path>
		<path d="M160.594,135.227L160.594,135.227c-2.68-0.001-4.896-1.234-5.928-3.302
			c-0.716-1.432-0.781-3.113-0.185-4.736c0.836-2.273,2.829-4.222,5.469-5.347l14.206-6.05c1.974-0.841,4.065-1.304,5.891-1.304
			c2.346,0,4.064,0.761,4.84,2.142c1.432,2.551-0.876,6.461-5.366,9.095l-13.634,7.986
			C164.194,134.703,162.364,135.227,160.594,135.227z M180.047,117.489c-1.431,0-3.104,0.377-4.715,1.063l-14.206,6.05
			c-1.854,0.79-3.285,2.144-3.829,3.622c-0.218,0.593-0.386,1.483,0.053,2.36c0.521,1.044,1.703,1.642,3.244,1.643l0,0
			c1.221,0,2.562-0.393,3.777-1.104l13.633-7.987c3.467-2.033,4.577-4.484,4.267-5.038
			C182.134,117.854,181.428,117.489,180.047,117.489z" style="fill:#6E6E96;"></path>
	</g>
</g>
<g>
	<path d="M145.701,90.078c-5.762-5.161-8.049-11.585-5.111-14.346c2.941-2.765,9.994-0.816,15.756,4.347
		l7.137,6.396l-9.09,11.656L145.701,90.078z" style="fill:#FFFFFF;"></path>
	<path d="M154.393,99.632c-0.377,0-0.741-0.142-1.02-0.4l-8.691-8.054c-4.188-3.75-6.828-8.381-6.872-12.066
		c-0.021-1.828,0.585-3.374,1.753-4.473c1.158-1.088,2.806-1.664,4.764-1.664c3.91,0,8.899,2.294,13.021,5.986l7.137,6.396
		c0.588,0.526,0.667,1.418,0.182,2.04l-9.09,11.656c-0.258,0.331-0.644,0.539-1.062,0.573
		C154.473,99.63,154.433,99.632,154.393,99.632z M144.326,75.975c-0.823,0-1.962,0.147-2.709,0.85
		c-0.548,0.515-0.819,1.272-0.808,2.25c0.034,2.829,2.347,6.709,5.893,9.885l7.512,6.96l7.225-9.264l-6.094-5.461
		C151.806,78.025,147.48,75.975,144.326,75.975z" style="fill:#6E6E96;"></path>
</g>
<g>
	<ellipse ry="18.903" rx="17.328" cy="114.001" cx="203.02" style="fill:#9797B5;"></ellipse>
	<path d="M203.02,134.404c-10.382,0-18.828-9.153-18.828-20.403c0-11.25,8.446-20.402,18.828-20.402
		s18.828,9.152,18.828,20.402C221.848,125.251,213.401,134.404,203.02,134.404z M203.02,96.598c-8.728,0-15.828,7.807-15.828,17.402
		c0,9.596,7.101,17.403,15.828,17.403s15.828-7.807,15.828-17.403C218.848,104.405,211.747,96.598,203.02,96.598z" style="fill:#6E6E96;"></path>
</g>
<g>
	<path d="M97.808,86.731l-8.542,40.841l44.321,7.2l13.381-63.978l-26.124-4.244
		C120.845,66.552,102.718,63.254,97.808,86.731z" style="fill:#FFFFFF;"></path>
	<path d="M133.589,136.272c-0.08,0-0.161-0.006-0.242-0.02l-44.321-7.2c-0.404-0.065-0.764-0.294-0.996-0.631
		c-0.232-0.338-0.316-0.756-0.232-1.157l8.542-40.841c4.064-19.434,16.894-21.532,22.222-21.532c1.436,0,2.368,0.15,2.54,0.18
		l26.107,4.242c0.404,0.065,0.765,0.293,0.996,0.631c0.232,0.337,0.315,0.755,0.231,1.156l-13.381,63.977
		C134.908,135.784,134.286,136.272,133.589,136.272z M91.056,126.343l41.356,6.718l12.767-61.038l-24.575-3.993
		c-0.051-0.009-0.808-0.139-2.042-0.139c-13.792,0-18.082,13.389-19.285,19.146L91.056,126.343z" style="fill:#6E6E96;"></path>
</g>
<g>
	<path d="M160.561,123.213c0,0,2.357-0.231,2.357,2.359c0,2.59,2.604,5.189,5.887,3.51
		c3.285-1.681,5.959-4.735,0.766-9.931C164.373,113.955,160.561,123.213,160.561,123.213z" style="fill:#666666;"></path>
	<path d="M166.752,130.115C166.751,130.115,166.751,130.115,166.752,130.115
		c-2.593-0.001-4.334-2.35-4.334-4.543c0-1.623-1.072-1.865-1.711-1.865l-0.919,0.074l0.311-0.759c0.1-0.243,2.495-5.955,6.28-5.955
		c1.204,0,2.396,0.582,3.545,1.73c2.302,2.302,3.315,4.437,3.016,6.343c-0.271,1.723-1.586,3.199-3.907,4.386
		C168.271,129.917,167.503,130.115,166.752,130.115z M161.32,122.764c1.1,0.21,2.098,1.025,2.098,2.808
		c0,1.711,1.34,3.542,3.333,3.543h0.001c0.591,0,1.205-0.161,1.825-0.479c2.02-1.033,3.155-2.262,3.374-3.651
		c0.248-1.573-0.672-3.417-2.734-5.48c-0.954-0.954-1.908-1.437-2.838-1.437C163.923,118.068,162.025,121.348,161.32,122.764z" style="fill:#6E6E96;"></path>
</g>
<g>
	<path d="M120.296,84.277c2.564-1.066,3.685-7.012,4.901-4.769l11.206,23.527l22.502,12.633
		c0.005,0.002,0.01,0.004,0.013,0.006l0.271,0.152l0.047,0.03c2.178,1.086,6.892-0.271,6.892-0.271
		c3.022-1.555,5.146,0.67,5.146,0.67s6.821,7.266,2.114,9.633c-0.604,0.304-1.196,0.232-1.302-0.209
		c-0.298-1.281-1.038-3.661-2.732-5.715c0,0,2.103,2.89,2.381,6.073c-0.104,0.558-0.444,1.237-1.44,1.571
		c-1.005,0.336-1.765,0.211-1.964-0.268c-0.215-1.416-0.721-4.167-1.566-5.436c0,0,1.006,1.708,1.096,5.382
		c0,0.509-0.265,1.112-1.537,1.068c-1.824-0.063-2.521-3.548-2.521-3.548c-0.605-2.533-1.761-1.635-3.236-1.601
		c-0.236,0.026,0,0-1.889-0.279c-0.001,0-0.01,0.001-0.01,0.001v-0.001c-0.771-0.009-1.551-0.164-2.281-0.494l-26.359-12.343
		c-1.002-0.451-1.808-1.179-2.292-2.07L114.361,83.37l0,0C113.143,81.125,117.732,85.344,120.296,84.277z" style="fill:#F7C8B6;"></path>
	<path d="M166.449,129.859l-0.181-0.003c-2.865-0.1-3.785-3.977-3.94-4.752
		c-0.071-0.294-0.142-0.472-0.19-0.572c-0.149,0.01-0.292,0.037-0.44,0.06c-0.294,0.046-0.657,0.103-1.055,0.115
		c-0.256,0.018-0.293,0.022-0.678-0.048c-0.191-0.036-0.567-0.105-1.406-0.23c-0.986-0.024-1.925-0.234-2.794-0.627l-26.377-12.351
		c-1.274-0.573-2.337-1.541-2.974-2.713l-13.371-24.652c-0.183-0.337-0.668-1.231-0.154-2.095c0.294-0.494,0.824-0.789,1.417-0.789
		c0.572,0,1.115,0.267,1.936,0.672c0.873,0.43,2.192,1.08,3.094,1.08c0.157,0,0.287-0.021,0.384-0.061
		c0.729-0.304,1.55-1.77,2.093-2.741c0.794-1.419,1.479-2.645,2.814-2.645c0.543,0,1.312,0.223,1.889,1.287l11.036,23.167
		l22.058,12.383c0.015,0.008,0.029,0.016,0.044,0.024v0l0.271,0.152c0.008,0.004,0.02,0.012,0.033,0.02
		c0.224,0.099,0.699,0.239,1.598,0.239c1.67,0,3.54-0.468,4.032-0.6c0.88-0.427,1.782-0.644,2.685-0.644
		c2.407,0,3.921,1.514,4.085,1.686c0.498,0.53,4.771,5.209,4.114,8.915c-0.167,0.942-0.721,2.244-2.411,3.094
		c-0.438,0.221-0.902,0.34-1.343,0.345c-0.43,0.67-1.093,1.172-1.948,1.458c-0.842,0.283-1.625,0.34-2.279,0.173
		C168.017,129.604,167.343,129.859,166.449,129.859z M162.239,121.527c1.538,0,2.553,0.987,3.019,2.934
		c0.229,1.117,0.762,2.169,1.083,2.375c-0.139-2.811-0.874-4.17-0.882-4.184c-0.389-0.704-0.159-1.599,0.528-2.017
		c0.686-0.417,1.576-0.229,2.022,0.44c0.811,1.216,1.335,3.335,1.656,5.158c0.047-0.013,0.097-0.028,0.15-0.045
		c0.244-0.082,0.347-0.18,0.395-0.271c-0.323-2.619-2.056-5.045-2.074-5.07c-0.474-0.657-0.342-1.572,0.299-2.066
		c0.642-0.495,1.559-0.393,2.073,0.231c1.452,1.761,2.273,3.73,2.723,5.175c0.19-0.202,0.254-0.396,0.285-0.573
		c0.285-1.6-1.781-4.665-3.34-6.33h0.001c-0.002,0-0.779-0.748-1.906-0.748c-0.471,0-0.962,0.13-1.459,0.386
		c-0.087,0.044-0.178,0.081-0.271,0.107c-0.106,0.031-2.635,0.75-4.986,0.75c-1.23,0-2.208-0.189-2.989-0.579
		c-0.05-0.025-0.099-0.052-0.146-0.083l-0.203-0.115c-0.016-0.008-0.031-0.016-0.047-0.025l-22.502-12.633
		c-0.271-0.152-0.486-0.383-0.62-0.663l-10.559-22.169c-0.02,0.036-0.04,0.071-0.059,0.105c-0.833,1.489-1.87,3.343-3.559,4.045
		c-1.047,0.436-2.404,0.314-3.605-0.081l11.784,21.726c0.325,0.6,0.89,1.103,1.589,1.418l26.379,12.352
		c0.497,0.224,1.062,0.346,1.663,0.353c0,0,0,0,0.001,0c0.07,0,0.141,0.006,0.211,0.016c0.977,0.145,1.403,0.224,1.617,0.263
		l0.024,0.004c0.277-0.016,0.494-0.053,0.699-0.085C161.553,121.578,161.883,121.527,162.239,121.527z" style="fill:#6E6E96;"></path>
</g>
<g>
	<polyline points="123.487,69.918 132.65,90.674 119.337,98.573 109.949,82.818" style="fill:#FFFFFF;"></polyline>
	<path d="M119.338,100.073c-0.511,0-1.009-0.261-1.29-0.732l-9.388-15.755
		c-0.424-0.711-0.191-1.632,0.521-2.056c0.71-0.424,1.631-0.19,2.056,0.521l8.621,14.468l10.882-6.457l-8.626-19.539
		c-0.335-0.758,0.008-1.644,0.766-1.978c0.759-0.335,1.644,0.009,1.978,0.766l9.164,20.756c0.307,0.695,0.046,1.509-0.606,1.896
		l-13.313,7.899C119.862,100.006,119.599,100.073,119.338,100.073z" style="fill:#6E6E96;"></path>
</g>
<g>
	<path d="M110.248,42.201c-2.063,15.58,0.419,32.005,22.745,37.333c24.521,5.851,27.483-13.866,28.679-26.261
		c1.51-15.639-1.521-34.207-28.771-36.109C120.108,16.27,112.549,24.817,110.248,42.201z" style="fill:#F7C8B6;"></path>
	<path d="M141.182,82.094c-0.001,0-0.001,0-0.003,0c-2.603,0-5.474-0.37-8.533-1.101
		c-18.947-4.521-26.76-17.275-23.884-38.989c2.433-18.384,10.597-27.285,24.244-26.337c10.794,0.754,18.839,4.174,23.911,10.166
		c5.383,6.36,7.427,15.382,6.249,27.584C162.268,62.725,160.398,82.094,141.182,82.094z M131.116,18.6
		c-10.771,0-17.291,8.006-19.381,23.797c-2.672,20.185,4.193,31.521,21.607,35.677c2.832,0.676,5.469,1.019,7.838,1.019
		c14.497,0.001,17.698-12.478,18.999-25.964c1.097-11.354-0.72-19.648-5.553-25.357c-4.529-5.351-11.874-8.417-21.83-9.111
		C132.226,18.62,131.665,18.6,131.116,18.6z" style="fill:#6E6E96;"></path>
</g>
<g>
	<path d="M111.494,25.624c16.252-22.228,53.107-12.3,53.781,6.261c0.677,18.563-21.271,8.069-21.271,8.069
		s-5.649-0.857-13.548,3.997c-1.376,0.847-1.928,2.327-4.893-0.319c-3.052-2.718-5.704-2.238-7.834,0.654
		c-0.458-0.278-0.953-0.562-1.495-0.862c-2.692-1.494-5.574,1.037-5.574,5.28c0,3.004,1.256,6.804,3.081,8.77
		c-0.309,5.904,0.964,10.53,0.964,10.53C109.415,71.131,97.254,45.1,111.494,25.624z" style="fill:#9595B8;"></path>
	<path d="M113.767,69.761c-3.067,0-5.503-3.896-6.682-6.218c-4.969-9.788-6.087-26.105,3.198-38.805
		c6.208-8.491,16.19-13.361,27.386-13.361c15.64,0,28.696,9.175,29.105,20.453c0.155,4.261-0.814,7.509-2.882,9.653
		c-1.871,1.941-4.565,2.925-8.007,2.925c-0.001,0-0.002,0-0.002,0c-5.391,0-11.04-2.424-12.283-2.989
		c-0.146-0.012-0.381-0.024-0.69-0.024c-1.633,0-6.038,0.374-11.668,3.833c-0.191,0.118-0.362,0.255-0.529,0.384
		c-0.555,0.432-1.314,1.022-2.429,1.022c-1.112,0-2.259-0.581-3.719-1.884c-2.219-1.976-3.911-1.905-5.627,0.424l-0.814,1.105
		l-1.173-0.713c-0.442-0.269-0.921-0.542-1.444-0.833c-0.291-0.162-0.58-0.244-0.859-0.244c-1.196,0-2.486,1.61-2.486,4.212
		c0,2.727,1.177,6.13,2.68,7.749l0.432,0.465l-0.033,0.634c-0.292,5.568,0.9,10.011,0.913,10.055l0.301,1.104l-0.985,0.584
		C114.946,69.604,114.374,69.761,113.767,69.761z M137.669,14.378c-6.011,0-17.246,1.576-24.964,12.131
		c-9.83,13.444-6.225,29.215-2.945,35.676c1.138,2.242,2.242,3.53,3.05,4.139c-0.336-1.872-0.718-4.855-0.593-8.327
		c-1.795-2.264-3.057-6.044-3.057-9.293c0-4.112,2.359-7.212,5.486-7.212c0.794,0,1.574,0.209,2.315,0.621
		c0.147,0.082,0.291,0.162,0.432,0.242c2.6-2.71,5.953-2.706,9.167,0.158c1.224,1.092,1.675,1.124,1.722,1.124
		c0.085,0,0.4-0.245,0.588-0.391c0.249-0.194,0.51-0.393,0.799-0.571c6.057-3.723,10.895-4.278,13.239-4.278
		c0.783,0,1.236,0.063,1.319,0.076l0.22,0.033l0.202,0.096c0.059,0.028,5.952,2.809,11.232,2.809c0.001,0,0.001,0,0.001,0
		c2.597,0,4.563-0.676,5.848-2.008c1.48-1.536,2.169-4.046,2.044-7.462C163.425,22.256,151.713,14.378,137.669,14.378z" style="fill:#6E6E96;"></path>
</g>
<g>
	<path d="M163.732,40.977L163.732,40.977c-2.344-4.262-9.869-8.291-24.853-8.703
		c-14.987-0.414-24.644,2.51-24.644,2.51s13.11,16.482,26.439,15.476c18.683-1.408,14.812,0.373,21.779,3.447
		C162.456,53.705,170.871,59.896,163.732,40.977z" style="fill:#FF8F8F;"></path>
	<path d="M164.922,56.174c-1.348,0-2.676-0.795-3.206-1.154c-1.714-0.767-2.81-1.463-3.694-2.026
		c-1.806-1.148-2.712-1.724-7.403-1.724c-2.319,0-5.442,0.154-9.831,0.485c-0.433,0.033-0.864,0.049-1.297,0.049
		c-13.478,0-25.906-15.429-26.428-16.086c-0.31-0.389-0.406-0.906-0.258-1.38c0.148-0.475,0.521-0.845,0.998-0.989
		c0.378-0.115,10.077-2.991,25.12-2.574c13.494,0.371,23.017,3.827,26.126,9.48c0.034,0.062,0.063,0.126,0.089,0.193
		c3.832,10.155,3.211,13.065,2.242,14.467C166.816,55.727,165.944,56.174,164.922,56.174z M163.06,52.335
		c0.095,0.042,0.185,0.093,0.27,0.153c0.474,0.337,1.199,0.686,1.593,0.686c0.039,0,0.056-0.004,0.056-0.004
		c-0.02-0.017,1.151-1.561-2.608-11.557c-1.054-1.83-5.715-7.35-23.53-7.839c-10.39-0.286-18.204,1.063-21.866,1.874
		c3.768,4.125,13.761,13.854,23.588,13.117c4.466-0.337,7.661-0.494,10.057-0.494c5.306,0,6.811,0.792,9.013,2.192
		C160.496,51.012,161.477,51.636,163.06,52.335L163.06,52.335z" style="fill:#6E6E96;"></path>
</g>
<g>
	<path d="M150.098,35.666c-14.309-3.603-21.707-1.017-34.266-0.028c-2.378,0.243-7.945,1.15-8.242-0.637l0,0
		c-2.081-7.31,2.567-15.616,10.172-21.096c6.045-4.354,14.923-7.45,22.97-6.375c8.897,1.187,15.363,5.068,19.693,10.282
		c4.332,5.215,7.1,12.188,4.1,24.757c0,0-0.496-2.487-4.211-4.211" style="fill:#FF8F8F;"></path>
	<path d="M164.525,44.069c-0.009,0-0.019,0-0.028,0c-0.704-0.013-1.305-0.515-1.442-1.206
		c-0.012-0.041-0.482-1.803-3.371-3.144c-0.752-0.349-1.078-1.241-0.729-1.992c0.349-0.75,1.24-1.077,1.991-0.729
		c1.195,0.555,2.111,1.185,2.813,1.812c1.77-10.736-1.401-16.325-4.487-20.039c-4.495-5.414-10.8-8.695-18.737-9.754
		c-6.88-0.919-15.471,1.478-21.895,6.105c-7.455,5.371-11.313,13.107-9.651,19.308c1.021,0.375,4.487-0.031,5.666-0.169
		c0.38-0.044,0.727-0.085,1.025-0.116c3.022-0.238,5.707-0.563,8.302-0.878c8.234-0.999,15.343-1.86,26.483,0.944
		c0.804,0.202,1.291,1.018,1.089,1.821c-0.202,0.804-1.017,1.29-1.821,1.088c-10.599-2.668-17.126-1.876-25.389-0.875
		c-2.626,0.319-5.342,0.648-8.393,0.888c-0.25,0.026-0.583,0.065-0.946,0.107c-3.7,0.435-8.296,0.973-8.875-1.897
		c-2.105-7.54,2.11-16.424,10.757-22.655c5.581-4.02,14.828-7.88,24.045-6.645c8.586,1.145,15.727,4.883,20.649,10.811
		c5.708,6.872,7.066,14.91,4.404,26.063C165.823,43.594,165.219,44.069,164.525,44.069z" style="fill:#6E6E96;"></path>
</g>
<path d="M161.96,38.091" style="fill:none;stroke:#6E6E96;"></path>
<g>
	<path d="M40.157,156.574v0.002c-1.182-11.706,0.551-48.236,13.623-60.729H41.64
		c-12.309,20.592-11.715,58.883-11.522,60.784L40.157,156.574z" style="fill:#FFFFFF;"></path>
	<path d="M28.764,158.139l-0.138-1.356c-0.037-0.359-1.298-39.916,11.727-61.705l0.437-0.73h16.731
		l-2.705,2.584c-8.544,8.166-12.167,27.867-13.167,43.202c0.425,0.265,0.708,0.736,0.708,1.274c0,0.598-0.35,1.114-0.856,1.355
		c-0.267,5.604-0.175,10.446,0.149,13.66l0.166,1.641L28.764,158.139z M42.501,97.347c-10.624,18.596-10.988,50.798-10.917,57.775
		l6.943-0.039c-0.924-13.29,1.221-43.926,11.905-57.736H42.501z" style="fill:#6E6E96;"></path>
</g>
<g>
	<path d="M36.44,204.638c0.1-0.467,0.156-0.947,0.156-1.441c0-4.166-3.721-7.542-8.311-7.542
		c-3.606,0-6.665,2.087-7.816,5c-1.756-0.848-3.759-1.331-5.886-1.331c-6.947,0-12.578,5.11-12.578,11.414
		c0,6.093,5.265,11.058,11.888,11.384c1.434,1.748,3.72,2.887,6.306,2.887c2.609,0,4.916-1.157,6.346-2.934
		c1.311,0.509,2.752,0.793,4.268,0.793c5.985,0,10.838-4.403,10.838-9.834C41.65,209.474,39.56,206.367,36.44,204.638z" style="fill:#FFFFFF;"></path>
	<path d="M20.199,226.509c-2.719,0-5.242-1.062-7.022-2.934c-7.156-0.65-12.672-6.179-12.672-12.837
		c0-7.121,6.315-12.914,14.078-12.914c1.771,0,3.537,0.312,5.18,0.908c1.722-2.787,4.972-4.577,8.522-4.577
		c5.41,0,9.811,4.057,9.811,9.042c0,0.225-0.01,0.45-0.029,0.677c3.201,2.133,5.083,5.488,5.083,9.16
		c0,6.25-5.535,11.334-12.338,11.334c-1.31,0-2.592-0.187-3.826-0.557C25.231,225.515,22.767,226.509,20.199,226.509z
		 M14.583,200.824c-6.108,0-11.078,4.447-11.078,9.914c0,5.255,4.595,9.597,10.462,9.886l0.664,0.032l0.422,0.515
		c1.219,1.485,3.095,2.338,5.146,2.338c2.045,0,3.981-0.888,5.177-2.374l0.688-0.855l1.023,0.397
		c1.182,0.459,2.436,0.691,3.726,0.691c5.149,0,9.338-3.738,9.338-8.334c-0.001-2.896-1.66-5.544-4.438-7.083l-0.973-0.539
		l0.233-1.088c0.082-0.381,0.123-0.76,0.123-1.127c0-3.332-3.055-6.042-6.811-6.042c-2.883,0-5.464,1.628-6.421,4.052l-0.593,1.501
		l-1.454-0.702C18.215,201.233,16.405,200.824,14.583,200.824z" style="fill:#6E6E96;"></path>
</g>
<path d="M69.817,107.289c-0.797,0-1.461-0.627-1.498-1.432l-0.453-9.941c-0.038-0.828,0.603-1.529,1.43-1.567
	c0.846-0.024,1.53,0.603,1.567,1.43l0.453,9.941c0.038,0.828-0.603,1.529-1.43,1.567C69.863,107.288,69.84,107.289,69.817,107.289z" style="fill:#6E6E96;"></path>
<path d="M213.15,115.133c-0.828,0-1.5-0.671-1.5-1.5c0-6.121-4.254-7.776-4.435-7.844
	c-0.772-0.288-1.174-1.146-0.894-1.919c0.281-0.774,1.131-1.18,1.903-0.905c0.263,0.093,6.425,2.364,6.425,10.668
	C214.65,114.461,213.979,115.133,213.15,115.133z" style="fill:#6E6E96;"></path>
<path d="M72.574,195.543H55.202c-0.829,0-1.5-0.672-1.5-1.5s0.671-1.5,1.5-1.5h17.372
	c0.829,0,1.5,0.672,1.5,1.5S73.403,195.543,72.574,195.543z" style="fill:#6E6E96;"></path>
<path d="M27.468,209.342c-0.133,0-0.269-0.018-0.403-0.055c-0.798-0.222-1.265-1.049-1.043-1.848
	c0.512-1.841,1.558-3.188,3.108-4.006c3.273-1.726,7.612-0.277,7.795-0.215c0.784,0.269,1.203,1.121,0.935,1.905
	c-0.268,0.783-1.118,1.199-1.901,0.936l0,0c-0.915-0.308-3.675-0.902-5.437,0.032c-0.798,0.423-1.324,1.127-1.609,2.152
	C28.728,208.907,28.125,209.342,27.468,209.342z" style="fill:#6E6E96;"></path>
<g style="opacity:0.24;enable-background:new    ;">
	<path d="M201.07,247.293h-27.486c-0.828,0-1.5-0.672-1.5-1.5s0.672-1.5,1.5-1.5h27.486
		c0.828,0,1.5,0.672,1.5,1.5S201.898,247.293,201.07,247.293z" style="fill:#6E6E96;"></path>
</g>
<g style="opacity:0.24;enable-background:new    ;">
	<path d="M167.521,247.293h-4.467c-0.828,0-1.5-0.672-1.5-1.5s0.672-1.5,1.5-1.5h4.467
		c0.828,0,1.5,0.672,1.5,1.5S168.35,247.293,167.521,247.293z" style="fill:#6E6E96;"></path>
</g>
<g style="opacity:0.24;enable-background:new    ;">
	<path d="M81.671,247.425H63.179c-0.829,0-1.5-0.672-1.5-1.5s0.671-1.5,1.5-1.5h18.492
		c0.829,0,1.5,0.672,1.5,1.5S82.5,247.425,81.671,247.425z" style="fill:#6E6E96;"></path>
</g>
<g style="opacity:0.24;enable-background:new    ;">
	<path d="M56.479,247.425h-6.063c-0.829,0-1.5-0.672-1.5-1.5s0.671-1.5,1.5-1.5h6.063
		c0.829,0,1.5,0.672,1.5,1.5S57.308,247.425,56.479,247.425z" style="fill:#6E6E96;"></path>
</g>
<g style="opacity:0.3;enable-background:new    ;">
	<path d="M57.755,65.675H21.379c-0.829,0-1.5-0.671-1.5-1.5s0.671-1.5,1.5-1.5h36.376
		c0.829,0,1.5,0.671,1.5,1.5S58.583,65.675,57.755,65.675z" style="fill:#6E6E96;"></path>
</g>
<g style="opacity:0.3;enable-background:new    ;">
	<path d="M209.641,27.384h-19.783c-0.828,0-1.5-0.671-1.5-1.5s0.672-1.5,1.5-1.5h19.783
		c0.828,0,1.5,0.671,1.5,1.5S210.469,27.384,209.641,27.384z" style="fill:#6E6E96;"></path>
</g>
<g style="opacity:0.1;enable-background:new    ;">
	<path d="M215.357,132.796c0,0-13.823,10.947-22.471,7.371c0,0,4.309,17.23,0,28.718
		c0,0,10.053,1.437,7.42,7.419s-22.496,9.812-22.496,25.847s1.196-10.771,35.18-10.771c33.982,0,20.311-13.881,16.839-15.562
		c0,0,29.769,13.249-10.149,21.739c-39.916,8.489-38.037,17.008-43.425,31.264c0,0-21.265-11.803,6.539-47.835
		c0,0,9.05-16.17,0.259-52.118c0,0,17.031,9.281,30.664,0L215.357,132.796z" style="fill:#6E6E96;"></path>
</g>
<g style="opacity:0.15;enable-background:new    ;">
	<path d="M61.265,166.969c0,0-12.444,22.496,5.744,22.496h7.658c0,0,5.063-0.194,5.063,5.063
		c0,5.259-3.958,5.259-3.958,5.259H60.308c0,0-4.787,10.26-2.394,10.26c2.394,0,68.332,0,68.332,0s-0.296-30.391-29.528-39.138
		c0,0,38.48,1.821,38.48,45.368H50.243l3.248-24.312c0,0-8.5-22.603,3.945-29.304l63.148-0.5v4.808H61.265z" style="fill:#6E6E96;"></path>
</g>
<g style="opacity:0.15;enable-background:new    ;">
	<path d="M57.521,146.179c0,0-5.83,10.738,6.136,10.738c11.966,0,47.863,0,47.863,0s5.265-0.74,5.265-8.746
		h5.136l2.634,5.69l-4.992,7.279H57.436C57.436,161.142,44.479,154.152,57.521,146.179z" style="fill:#6E6E96;"></path>
</g>
<g style="opacity:0.15;enable-background:new    ;">
	<path d="M6.891,157.041c0,0-2.995,6.545,6.544,6.545s44,0,44,0l-4.563,4.563l-41.9,1.343
		C10.972,169.492-1.69,165.623,6.891,157.041z" style="fill:#6E6E96;"></path>
</g>
<g style="opacity:0.63;enable-background:new    ;">
	<path d="M208.758,140.077c0,0,12.376,11.997,15.512,30.645c0,0,1.666-12.39-9.637-34.542L208.758,140.077z" style="fill:#FFFFFF;"></path>
</g>
<g style="opacity:0.15;enable-background:new    ;">
	<path d="M59.221,231.123c0,0,30.7-26.888,58.492,5.215c0,0,8.539-10.479,8.539-20.061H55.339
		C55.339,216.277,53.826,224.918,59.221,231.123z" style="fill:#6E6E96;"></path>
</g>
<g style="opacity:0.15;enable-background:new    ;">
	<path d="M182.833,239.121c0,0,5.224-43.898,45.931-31.938c0,0,2.465-15.313,12.619-5.157l-5.896-10.646
		c0,0-15.613,8.615-29.674,8.615c-14.062,0-29.558,18.522-29.558,28.824L182.833,239.121z" style="fill:#6E6E96;"></path>
</g>
<g style="opacity:0.15;enable-background:new    ;">
	<path d="M225.782,231.504c0,0,15.446-6.316,17.362-19.018c0,0,1.489,32.212-32.761,32.759L225.782,231.504z" style="fill:#6E6E96;"></path>
</g>
<g style="opacity:0.63;enable-background:new    ;">
	<path d="M92.027,175.644c0,0-5.284,2.072-2.152,5.531c3.133,3.458,6.758,2.594,17.996,13.831
		C116.083,203.219,116.74,177.513,92.027,175.644z" style="fill:#FFFFFF;"></path>
</g>
<g style="opacity:0.63;enable-background:new    ;">
	<path d="M220.648,178.457c0,0,14.838,3.352,6.461,6.462c-8.375,3.11-16.99,0.239-12.684-4.067
		C217.773,177.504,220.648,178.457,220.648,178.457z" style="fill:#FFFFFF;"></path>
</g>
<g style="opacity:0.15;enable-background:new    ;">
	<path d="M96.208,128.7c0,0-6.226,13.381,4.304,13.381c10.53,0,26.804,0,26.804,0l15.12,51.967l-5.305,2.745
		l-11.619-48.62H93.917c0,0-10.556-1.525-3.656-19.604L96.208,128.7z" style="fill:#6E6E96;"></path>
</g>
<g style="opacity:0.15;enable-background:new    ;">
	<polygon points="131.48,134.43 145.504,134.772 162.324,184.922 155.842,186.967 143.109,139.687 
		136.177,139.47" style="fill:#6E6E96;"></polygon>
</g>
<g style="opacity:0.1;enable-background:new    ;">
	<path d="M106.256,84.167l15.316,27.282l8.174,4.62l-3.363,9.571l-34.486-2.705l-2.631,4.637l44.382,6.911
		l4.32-20.667l-10.24-5.792l-5.92-10.918l-6.279-17.912c0,0-3.77-4.361-5.923-2.207C107.454,79.141,105.06,82.035,106.256,84.167z" style="fill:#6E6E96;"></path>
</g>
<g style="opacity:0.1;enable-background:new    ;">
	<path d="M125.56,94.881c0,0,5.344,12.261,7.739,12.261c2.393,0,20.146,12.205,26.803,12.205
		c6.658,0,8.226,7.998,8.226,7.998s-6.591-4.691-9.655-4.412s-30.942-14.907-30.942-14.907l-5.92-10.918L125.56,94.881z" style="fill:#6E6E96;"></path>
</g>
<g style="opacity:0.1;enable-background:new    ;">
	<path d="M144.359,83.26c0,0,18.136,14.787,21.726,14.787s18.437,0,18.437,0l-3.373,3.987l-18.922-2.204
		l-5.934-4.134l-1.9,2.437l-10.74-10.103L144.359,83.26z" style="fill:#6E6E96;"></path>
</g>
<g style="opacity:0.15;enable-background:new    ;">
	<path d="M131.184,8.002c0,0-18.671,10.798-16.518,17.738s21.136,4.341,32.273,4.341
		c11.139,0,11.967,11.487,0,10.051c-11.965-1.436-24.889-0.479-18.426,1.915c6.461,2.394,24.17,0.479,29.913,4.068
		s4.786-6.461,4.786-6.461s4.895,16.412,1.676,15.016c-3.218-1.396-8.848-5.263-16.039-4.873
		c-7.19,0.392-22.246-0.467-33.018-14.159l-8.242-0.637C107.589,35.001,103.224,16.794,131.184,8.002z" style="fill:#6E6E96;"></path>
</g>
<g style="opacity:0.1;enable-background:new    ;">
	<path d="M134.564,49.597c0,0,5.223,3.772,13.166,3.772c7.942,0,7.701,10.297,4.599,15.467
		c-5.017,8.358-32.65,8.521-37.623-6.27c0,0-0.408,19.585,33.448,16.898c0,0,12.953-8.307,13.38-24.841c0,0,1.8-3.535-5.442-4.182
		C148.85,49.796,134.564,49.597,134.564,49.597z" style="fill:#6E6E96;"></path>
</g>
<g style="opacity:0.25;enable-background:new    ;">
	<path d="M154.473,22.854c-1.027,2.067-3.977,0.417-7.699-1.432c-3.722-1.847-6.81-3.19-5.782-5.259
		c1.026-2.067,4.876-2.247,8.599-0.399C153.312,17.611,155.498,20.786,154.473,22.854z" style="fill:#FFFFFF;"></path>
</g>
<path d="M147.73,69.872h-6.475c-0.828,0-1.5-0.671-1.5-1.5s0.672-1.5,1.5-1.5h6.475
	c0.828,0,1.5,0.671,1.5,1.5S148.559,69.872,147.73,69.872z" style="fill:#6E6E96;"></path>
<g style="opacity:0.15;enable-background:new    ;">
	<path d="M12.836,157.041c0,0-6.786-45.114,25.933-45.114c32.719,0,29.95,33.639,29.95,33.639
		s11.057-39.632-3.225-39.632H17.283C17.283,105.933,1.741,127.967,12.836,157.041z" style="fill:#6E6E96;"></path>
</g>
<g style="opacity:0.15;enable-background:new    ;">
	<path d="M68.776,143.516c0,0,2.542-33.407,22.64-26.226l1.246-5.956l-21.652-5.402
		C71.01,105.933,75.844,134.458,68.776,143.516z" style="fill:#6E6E96;"></path>
</g>
<g>
	<ellipse ry="13.361" rx="12.191" cy="113.081" cx="203.867" style="fill:#E3F8FF;"></ellipse>
	<path d="M203.867,127.942c-7.55,0-13.692-6.667-13.692-14.861s6.143-14.861,13.692-14.861
		s13.691,6.667,13.691,14.861S211.417,127.942,203.867,127.942z M203.867,101.219c-5.896,0-10.692,5.321-10.692,11.861
		s4.797,11.861,10.692,11.861s10.691-5.321,10.691-11.861S209.763,101.219,203.867,101.219z" style="fill:#6E6E96;"></path>
</g>
<ellipse ry="5.105" rx="3.51" cy="112.725" cx="207.247" style="fill:#FFFFFF;"></ellipse>
</svg>
