<?xml version="1.0" standalone="no"?><!DOCTYPE svg PUBLIC "-//W3C//DTD SVG 1.1//EN" "http://www.w3.org/Graphics/SVG/1.1/DTD/svg11.dtd"><svg class="icon" width="200px" height="200.00px" viewBox="0 0 1024 1024" version="1.1" xmlns="http://www.w3.org/2000/svg"><path d="M512.2048 944.6912c-17.2544 0-33.8944-7.2192-45.6192-19.8656L57.6512 485.7344C40.1408 466.944 35.9936 438.8352 47.3088 415.744l152.6784-310.7328c10.5472-21.504 32-34.8672 55.9616-34.8672h512.512c23.9616 0 45.4144 13.3632 55.9616 34.8672l152.6784 310.7328c11.3152 23.04 7.168 51.2-10.3424 69.9904l-408.8832 439.0912a62.7456 62.7456 0 0 1-45.6704 19.8656zM255.9488 131.6352c-0.3584 0-0.6656 0.2048-0.8192 0.512L102.4512 442.88c-0.1536 0.3584-0.1024 0.768 0.1536 1.024l408.8832 439.0912c0.2048 0.2048 1.1264 0.2048 1.3312 0l408.9344-439.0912c0.256-0.256 0.3072-0.6656 0.1536-1.024l-152.6784-310.7328a0.91136 0.91136 0 0 0-0.8192-0.512H255.9488z" fill="#4D5254" /><path d="M509.0304 721.5616h-0.1536c-16.6912-0.0512-32.3072-6.5536-44.0832-18.3808L240.8448 477.952l43.5712-43.3152 224 225.2288c0.1024 0.1024 0.256 0.256 0.6656 0.256 0.3584 0 0.5632-0.1536 0.6656-0.256l233.3184-232.704 43.3664 43.52-233.3184 232.704c-11.8272 11.6736-27.4432 18.176-44.0832 18.176z" fill="#00A0E9" /></svg>