<?xml version="1.0" standalone="no"?><!DOCTYPE svg PUBLIC "-//W3C//DTD SVG 1.1//EN" "http://www.w3.org/Graphics/SVG/1.1/DTD/svg11.dtd"><svg class="icon" width="200px" height="200.00px" viewBox="0 0 1024 1024" version="1.1" xmlns="http://www.w3.org/2000/svg"><path d="M286.1568 941.2096c-7.168 0-14.2848-1.8944-20.7872-5.7344a40.52992 40.52992 0 0 1-20.1728-34.9696l-0.7168-90.6752h-119.808c-33.8944 0-61.44-27.5456-61.44-61.44V175.8208c0-33.8944 27.5456-61.44 61.44-61.44h779.1104c33.8944 0 61.44 27.5456 61.44 61.44v572.5696c0 33.8944-27.5456 61.44-61.44 61.44h-366.0288l-231.936 126.3104c-6.1952 3.3792-12.9536 5.0688-19.6608 5.0688zM124.672 175.8208v572.5696h140.1856c22.4256 0 40.7552 18.2272 40.96 40.6528l0.6144 76.8512 206.5408-112.4864c5.9904-3.2768 12.7488-4.9664 19.6096-4.9664h371.3024l-0.0512-572.5696H124.672z" fill="#4D5254" /><path d="M287.3856 348.16h466.688v61.44H287.3856zM287.3856 519.424h287.5904v61.44H287.3856z" fill="#00A0E9" /></svg>