<?xml version="1.0" standalone="no"?><!DOCTYPE svg PUBLIC "-//W3C//DTD SVG 1.1//EN" "http://www.w3.org/Graphics/SVG/1.1/DTD/svg11.dtd"><svg class="icon" width="200px" height="200.00px" viewBox="0 0 1024 1024" version="1.1" xmlns="http://www.w3.org/2000/svg"><path d="M947.8144 418.8672a61.25568 61.25568 0 0 0-61.7984 2.56l-11.3664 6.144V116.3264c0-33.8944-27.5456-61.44-61.44-61.44H202.5984c-33.8944 0-61.44 27.5456-61.44 61.44V419.328c-17.9712-9.7792-39.68-10.1376-58.0096-0.4608a61.29664 61.29664 0 0 0-32.7168 54.3232v433.408c0 33.8944 27.5456 61.44 61.44 61.44h807.2192c33.8944 0 61.44-27.5456 61.44-61.44V473.1904c0-22.8352-12.544-43.6736-32.7168-54.3232z m-134.6048-302.5408v344.576l-295.0656 160.2048-2.6624 1.5872-1.28-0.8704-311.6032-169.1136v-336.384h610.6112zM111.872 906.5472V473.1392l1.28 0.8704 369.2032 200.4992c20.2752 13.0048 45.9264 13.0048 66.2016 0l367.872-199.7312 2.6624-1.6384 0.0512 433.408H111.872z" fill="#4D5254" /><path d="M475.2896 204.1344h249.0368v61.44H475.2896zM302.7456 343.3472h421.5808v61.44H302.7456z" fill="#00A0E9" /></svg>