<?xml version="1.0" standalone="no"?><!DOCTYPE svg PUBLIC "-//W3C//DTD SVG 1.1//EN" "http://www.w3.org/Graphics/SVG/1.1/DTD/svg11.dtd"><svg class="icon" width="200px" height="200.00px" viewBox="0 0 1024 1024" version="1.1" xmlns="http://www.w3.org/2000/svg"><path d="M887.466667 955.733333H136.533333c-13.653333 0-23.893333-6.826667-30.72-17.066666-6.826667-10.24-6.826667-23.893333 0-34.133334L215.04 716.8c10.24-17.066667 30.72-20.48 47.786667-13.653333 17.066667 10.24 20.48 30.72 13.653333 47.786666l-78.506667 136.533334h631.466667L750.933333 750.933333c-10.24-17.066667-3.413333-37.546667 13.653334-47.786666 17.066667-10.24 37.546667-3.413333 47.786666 13.653333l109.226667 187.733333c6.826667 10.24 6.826667 23.893333 0 34.133334-10.24 10.24-20.48 17.066667-34.133333 17.066666z" fill="#333333" /><path d="M512 819.2c-6.826667 0-13.653333-3.413333-20.48-6.826667-10.24-6.826667-266.24-197.973333-266.24-392.533333C228.693333 262.826667 354.986667 136.533333 512 136.533333s286.72 126.293333 286.72 286.72c0 194.56-252.586667 382.293333-266.24 392.533334-6.826667 0-13.653333 3.413333-20.48 3.413333z m0-614.4c-119.466667 0-218.453333 95.573333-218.453333 218.453333 0 119.466667 139.946667 259.413333 215.04 320.853334 58.026667-47.786667 218.453333-187.733333 218.453333-320.853334C730.453333 300.373333 631.466667 204.8 512 204.8z" fill="#333333" /><path d="M518.826667 552.96c-71.68 0-133.12-58.026667-133.12-133.12 0-71.68 58.026667-133.12 133.12-133.12 71.68 0 133.12 58.026667 133.12 133.12-3.413333 75.093333-61.44 133.12-133.12 133.12z m0-228.693333c-54.613333 0-98.986667 44.373333-98.986667 98.986666 0 54.613333 44.373333 98.986667 98.986667 98.986667 54.613333 0 98.986667-44.373333 98.986666-98.986667-3.413333-54.613333-44.373333-98.986667-98.986666-98.986666z" fill="#FFAF00" /></svg>