<?xml version="1.0" standalone="no"?><!DOCTYPE svg PUBLIC "-//W3C//DTD SVG 1.1//EN" "http://www.w3.org/Graphics/SVG/1.1/DTD/svg11.dtd"><svg class="icon" width="200px" height="200.00px" viewBox="0 0 1024 1024" version="1.1" xmlns="http://www.w3.org/2000/svg"><path d="M512 192a128 128 0 1 1-128 128 128 128 0 0 1 128-128M512 128a192 192 0 1 0 192 192A191.573333 191.573333 0 0 0 512 128z" fill="#647FBB" /><path d="M480 768m0-32l0-106.666667q0-32 32-32l0 0q32 0 32 32l0 106.666667q0 32-32 32l0 0q-32 0-32-32Z" fill="#647FBB" /><path d="M512 533.333333a320 320 0 0 1 319.146667 298.666667h-640a320 320 0 0 1 319.146666-298.666667M512 469.333333a384 384 0 0 0-384 384 42.666667 42.666667 0 0 0 42.666667 42.666667h682.666666a42.666667 42.666667 0 0 0 42.666667-42.666667 384 384 0 0 0-384-384z" fill="#647FBB" /></svg>